<svg width="283" height="45" viewBox="0 0 283 45" fill="none" xmlns="http://www.w3.org/2000/svg">
<path d="M39.648 43.992C39.192 43.992 38.7 43.956 38.172 43.884C37.62 43.812 37.14 43.692 36.732 43.524V39.96C37.044 40.056 37.38 40.14 37.74 40.212C38.1 40.284 38.448 40.32 38.784 40.32C39.648 40.32 40.32 40.056 40.8 39.528C41.304 39 41.556 38.112 41.556 36.864V17.82H46.056V37.116C46.056 39.372 45.54 41.076 44.508 42.228C43.476 43.404 41.856 43.992 39.648 43.992ZM41.268 14.4V10.008H46.272V14.4H41.268ZM57.3867 36.36C55.1547 36.36 53.4867 35.748 52.3827 34.524C51.2787 33.3 50.7267 31.428 50.7267 28.908V17.82H55.2267V28.872C55.2267 30.216 55.5027 31.212 56.0547 31.86C56.6067 32.484 57.4467 32.796 58.5747 32.796C59.8467 32.796 60.8787 32.364 61.6707 31.5C62.4867 30.636 62.8947 29.496 62.8947 28.08V17.82H67.3947V36H63.0027V32.292H63.5067C62.9787 33.588 62.1747 34.596 61.0947 35.316C60.0387 36.012 58.8027 36.36 57.3867 36.36ZM72.28 43.776V22.356C72.28 21.612 72.256 20.856 72.208 20.088C72.16 19.32 72.088 18.564 71.992 17.82H76.348L76.744 21.636H76.348C76.708 20.364 77.464 19.356 78.616 18.612C79.792 17.844 81.148 17.46 82.684 17.46C84.292 17.46 85.696 17.844 86.896 18.612C88.096 19.356 89.032 20.436 89.704 21.852C90.376 23.244 90.712 24.924 90.712 26.892C90.712 28.86 90.376 30.552 89.704 31.968C89.032 33.384 88.096 34.476 86.896 35.244C85.696 35.988 84.292 36.36 82.684 36.36C81.172 36.36 79.84 35.988 78.688 35.244C77.536 34.5 76.768 33.504 76.384 32.256H76.78V43.776H72.28ZM81.424 32.904C82.864 32.904 84.016 32.412 84.88 31.428C85.744 30.42 86.176 28.908 86.176 26.892C86.176 24.876 85.744 23.376 84.88 22.392C84.016 21.408 82.864 20.916 81.424 20.916C80.008 20.916 78.868 21.408 78.004 22.392C77.14 23.376 76.708 24.876 76.708 26.892C76.708 28.908 77.14 30.42 78.004 31.428C78.868 32.412 80.008 32.904 81.424 32.904ZM94.6043 36V17.82H99.1043V36H94.6043ZM94.3523 14.4V10.008H99.3563V14.4H94.3523ZM111.767 36.36C109.607 36.36 107.975 35.796 106.871 34.668C105.767 33.54 105.215 31.848 105.215 29.592V21.204H101.723V17.82H105.215V13.176L109.715 12.024V17.82H114.575V21.204H109.715V29.304C109.715 30.552 109.955 31.428 110.435 31.932C110.915 32.436 111.575 32.688 112.415 32.688C112.871 32.688 113.255 32.652 113.567 32.58C113.903 32.508 114.227 32.412 114.539 32.292V35.856C114.131 36.024 113.675 36.144 113.171 36.216C112.691 36.312 112.223 36.36 111.767 36.36ZM126.24 36.36C123.192 36.36 120.804 35.52 119.076 33.84C117.348 32.16 116.484 29.856 116.484 26.928C116.484 25.032 116.856 23.376 117.6 21.96C118.344 20.544 119.376 19.44 120.696 18.648C122.04 17.856 123.6 17.46 125.376 17.46C127.128 17.46 128.592 17.832 129.768 18.576C130.944 19.32 131.832 20.364 132.432 21.708C133.056 23.052 133.368 24.624 133.368 26.424V27.612H120.12V25.236H130.164L129.552 25.74C129.552 24.06 129.192 22.776 128.472 21.888C127.776 21 126.756 20.556 125.412 20.556C123.924 20.556 122.772 21.084 121.956 22.14C121.164 23.196 120.768 24.672 120.768 26.568V27.036C120.768 29.004 121.248 30.48 122.208 31.464C123.192 32.424 124.572 32.904 126.348 32.904C127.38 32.904 128.34 32.772 129.228 32.508C130.14 32.22 131.004 31.764 131.82 31.14L133.152 34.164C132.288 34.86 131.256 35.4 130.056 35.784C128.856 36.168 127.584 36.36 126.24 36.36ZM137.142 36V22.464C137.142 21.696 137.118 20.916 137.07 20.124C137.046 19.332 136.986 18.564 136.89 17.82H141.246L141.75 22.788H141.03C141.27 21.588 141.666 20.592 142.218 19.8C142.794 19.008 143.49 18.42 144.306 18.036C145.122 17.652 146.01 17.46 146.97 17.46C147.402 17.46 147.75 17.484 148.014 17.532C148.278 17.556 148.542 17.616 148.806 17.712L148.77 21.672C148.314 21.48 147.918 21.36 147.582 21.312C147.27 21.264 146.874 21.24 146.394 21.24C145.362 21.24 144.486 21.456 143.766 21.888C143.07 22.32 142.542 22.92 142.182 23.688C141.846 24.456 141.678 25.332 141.678 26.316V36H137.142ZM149.999 36V30.996H155.039V36H149.999ZM159.953 36V21.204H156.461V17.82H161.213L159.953 18.972V16.2C159.953 13.944 160.517 12.24 161.645 11.088C162.797 9.936 164.465 9.36 166.649 9.36C167.177 9.36 167.729 9.396 168.305 9.468C168.905 9.54 169.421 9.672 169.853 9.864V13.392C169.541 13.272 169.169 13.176 168.737 13.104C168.305 13.032 167.885 12.996 167.477 12.996C166.541 12.996 165.797 13.272 165.245 13.824C164.693 14.352 164.417 15.216 164.417 16.416V18.612L163.769 17.82H176.405V36H171.905V21.204H164.453V36H159.953ZM171.653 14.4V10.008H176.657V14.4H171.653ZM181.3 36V22.356C181.3 21.612 181.276 20.856 181.228 20.088C181.18 19.32 181.108 18.564 181.012 17.82H185.368L185.728 21.42H185.296C185.872 20.148 186.724 19.176 187.852 18.504C188.98 17.808 190.288 17.46 191.776 17.46C193.912 17.46 195.52 18.06 196.6 19.26C197.68 20.46 198.22 22.332 198.22 24.876V36H193.72V25.092C193.72 23.628 193.432 22.584 192.856 21.96C192.304 21.312 191.464 20.988 190.336 20.988C188.944 20.988 187.84 21.42 187.024 22.284C186.208 23.148 185.8 24.3 185.8 25.74V36H181.3ZM210.011 36.36C208.427 36.36 207.035 35.988 205.835 35.244C204.635 34.476 203.699 33.384 203.027 31.968C202.355 30.552 202.019 28.86 202.019 26.892C202.019 24.924 202.355 23.244 203.027 21.852C203.699 20.436 204.635 19.356 205.835 18.612C207.035 17.844 208.427 17.46 210.011 17.46C211.547 17.46 212.891 17.844 214.043 18.612C215.219 19.356 215.999 20.364 216.383 21.636H215.987L216.383 17.82H220.703C220.631 18.564 220.559 19.32 220.487 20.088C220.439 20.856 220.415 21.612 220.415 22.356V36H215.951L215.915 32.256H216.347C215.963 33.504 215.183 34.5 214.007 35.244C212.831 35.988 211.499 36.36 210.011 36.36ZM211.271 32.904C212.687 32.904 213.827 32.412 214.691 31.428C215.555 30.42 215.987 28.908 215.987 26.892C215.987 24.876 215.555 23.376 214.691 22.392C213.827 21.408 212.687 20.916 211.271 20.916C209.855 20.916 208.715 21.408 207.851 22.392C206.987 23.376 206.555 24.876 206.555 26.892C206.555 28.908 206.975 30.42 207.815 31.428C208.679 32.412 209.831 32.904 211.271 32.904ZM225.315 36V22.356C225.315 21.612 225.291 20.856 225.243 20.088C225.195 19.32 225.123 18.564 225.027 17.82H229.383L229.743 21.42H229.311C229.887 20.148 230.739 19.176 231.867 18.504C232.995 17.808 234.303 17.46 235.791 17.46C237.927 17.46 239.535 18.06 240.615 19.26C241.695 20.46 242.235 22.332 242.235 24.876V36H237.735V25.092C237.735 23.628 237.447 22.584 236.871 21.96C236.319 21.312 235.479 20.988 234.351 20.988C232.959 20.988 231.855 21.42 231.039 22.284C230.223 23.148 229.815 24.3 229.815 25.74V36H225.315ZM255.359 36.36C253.487 36.36 251.843 35.976 250.427 35.208C249.035 34.44 247.955 33.348 247.187 31.932C246.419 30.492 246.035 28.788 246.035 26.82C246.035 24.852 246.419 23.172 247.187 21.78C247.979 20.388 249.071 19.32 250.463 18.576C251.855 17.832 253.487 17.46 255.359 17.46C256.559 17.46 257.723 17.652 258.851 18.036C260.003 18.396 260.939 18.924 261.659 19.62L260.291 22.752C259.643 22.152 258.911 21.708 258.095 21.42C257.303 21.108 256.523 20.952 255.755 20.952C254.147 20.952 252.887 21.456 251.975 22.464C251.087 23.472 250.643 24.936 250.643 26.856C250.643 28.776 251.087 30.252 251.975 31.284C252.887 32.316 254.147 32.832 255.755 32.832C256.499 32.832 257.267 32.688 258.059 32.4C258.875 32.112 259.619 31.668 260.291 31.068L261.659 34.164C260.915 34.86 259.967 35.4 258.815 35.784C257.687 36.168 256.535 36.36 255.359 36.36ZM273.58 36.36C270.532 36.36 268.144 35.52 266.416 33.84C264.688 32.16 263.824 29.856 263.824 26.928C263.824 25.032 264.196 23.376 264.94 21.96C265.684 20.544 266.716 19.44 268.036 18.648C269.38 17.856 270.94 17.46 272.716 17.46C274.468 17.46 275.932 17.832 277.108 18.576C278.284 19.32 279.172 20.364 279.772 21.708C280.396 23.052 280.708 24.624 280.708 26.424V27.612H267.46V25.236H277.504L276.892 25.74C276.892 24.06 276.532 22.776 275.812 21.888C275.116 21 274.096 20.556 272.752 20.556C271.264 20.556 270.112 21.084 269.296 22.14C268.504 23.196 268.108 24.672 268.108 26.568V27.036C268.108 29.004 268.588 30.48 269.548 31.464C270.532 32.424 271.912 32.904 273.688 32.904C274.72 32.904 275.68 32.772 276.568 32.508C277.48 32.22 278.344 31.764 279.16 31.14L280.492 34.164C279.628 34.86 278.596 35.4 277.396 35.784C276.196 36.168 274.924 36.36 273.58 36.36Z" fill="white"/>
<path fill-rule="evenodd" clip-rule="evenodd" d="M0 20.3818L8.71132 10H16V27H0V20.3818ZM16 28H0V34.4026L9.05423 42H16V28ZM17 42H23.6332L32 32.0288V28H17V42ZM17 27V10H20.7013L32 19.4808V27H17Z" fill="#55B02E"/>
</svg>
